<svg xmlns="http://www.w3.org/2000/svg" viewBox="-0.5 -0.5 24 24" id="Building-Real-Eastate-House-1--Streamline-Pixel.svg" height="24" width="24"><desc>Building Real Eastate House 1 Streamline Icon: https://streamlinehq.com</desc><title>building-real-eastate-house-1</title><g><path d="M21.9075 15.3309375H12.0534375v-1.0925h-1.0996875v-2.1921874999999997h-1.0925v-2.1921874999999997h-1.0996875v-2.185h-1.0925V6.569375000000001h9.854062500000001V5.476875H5.476875v1.0925H4.3843749999999995V4.3771875h1.0925V3.2846875000000004H0v1.0925h1.0996875v9.86125H0v2.1921874999999997h1.0996875V23h20.8078125v-6.569375000000001H23v-2.1921874999999997h-1.0925ZM2.1921874999999997 4.3771875h1.0925v5.476875H2.1921874999999997Zm7.6690625 17.5303125h-1.0996875v-5.476875h-1.0925v5.476875H4.3843749999999995v-2.1921874999999997h1.0925V18.615624999999998H4.3843749999999995v-2.185H3.2846875000000004v5.476875H2.1921874999999997V14.2384375h1.0925v-2.1921874999999997H4.3843749999999995v-2.1921874999999997h1.0925v-1.0925h1.0996875v1.0925h1.0925v2.1921874999999997h1.0925v2.1921874999999997h1.0996875Zm10.95375 0H10.95375v-5.476875h9.86125Z" fill="#FFFF00" stroke-width="1"></path><path d="M20.815 12.04625h1.0925v2.1921874999999997h-1.0925Z" fill="#FFFF00" stroke-width="1"></path><path d="M20.815 2.1921874999999997h1.0925v1.0925h-1.0925Z" fill="#FFFF00" stroke-width="1"></path><path d="M19.7153125 9.854062500000001h1.0996875v2.1921874999999997h-1.0996875Z" fill="#FFFF00" stroke-width="1"></path><path d="M19.7153125 1.0925h1.0996875v1.0996875h-1.0996875Z" fill="#FFFF00" stroke-width="1"></path><path d="M18.6228125 7.6690625h1.0925v2.185h-1.0925Z" fill="#FFFF00" stroke-width="1"></path><path d="M18.6228125 3.2846875000000004h2.1921874999999997v1.0925h-2.1921874999999997Z" fill="#FFFF00" stroke-width="1"></path><path d="M17.523125 0h2.1921874999999997v1.0925h-2.1921874999999997Z" fill="#FFFF00" stroke-width="1"></path><path d="M19.7153125 17.523125h-3.2846875000000004v3.2846875000000004h3.2846875000000004Zm-1.0925 2.1921874999999997h-1.0996875V18.615624999999998h1.0996875Z" fill="#FFFF00" stroke-width="1"></path><path d="M17.523125 6.569375000000001h1.0996875v1.0996875h-1.0996875Z" fill="#FFFF00" stroke-width="1"></path><path d="M17.523125 2.1921874999999997h1.0996875v1.0925h-1.0996875Z" fill="#FFFF00" stroke-width="1"></path><path d="m14.2384375 13.138750000000002 0 1.0996875 4.3843749999999995 0 0 -2.1921874999999997 -1.0996875 0 0 1.0925 -3.2846875000000004 0z" fill="#FFFF00" stroke-width="1"></path><path d="M16.430625 10.95375h1.0925v1.0925h-1.0925Z" fill="#FFFF00" stroke-width="1"></path><path d="M16.430625 1.0925h1.0925v1.0996875h-1.0925Z" fill="#FFFF00" stroke-width="1"></path><path d="M15.338125 17.523125h-3.2846875000000004v3.2846875000000004h3.2846875000000004Zm-1.0996875 2.1921874999999997h-1.0925V18.615624999999998h1.0925Z" fill="#FFFF00" stroke-width="1"></path><path d="M13.145937499999999 12.04625h1.0925v1.0925h-1.0925Z" fill="#FFFF00" stroke-width="1"></path><path d="m13.145937499999999 10.95375 3.2846875000000004 0 0 -1.0996875 -4.3771875 0 0 2.1921874999999997 1.0925 0 0 -1.0925z" fill="#FFFF00" stroke-width="1"></path><path d="M13.145937499999999 1.0925h1.0925v2.1921874999999997h-1.0925Z" fill="#FFFF00" stroke-width="1"></path><path d="M10.95375 0h2.1921874999999997v1.0925h-2.1921874999999997Z" fill="#FFFF00" stroke-width="1"></path><path d="M7.6690625 3.2846875000000004h5.476875v1.0925h-5.476875Z" fill="#FFFF00" stroke-width="1"></path><path d="M9.86125 1.0925h1.0925v1.0996875h-1.0925Z" fill="#FFFF00" stroke-width="1"></path><path d="M7.6690625 0h2.1921874999999997v1.0925h-2.1921874999999997Z" fill="#FFFF00" stroke-width="1"></path><path d="M4.3843749999999995 15.3309375h3.2846875000000004v1.0996875H4.3843749999999995Z" fill="#FFFF00" stroke-width="1"></path><path d="M6.5765625000000005 1.0925h1.0925v2.1921874999999997H6.5765625000000005Z" fill="#FFFF00" stroke-width="1"></path><path d="M4.3843749999999995 0h1.0925v1.0925H4.3843749999999995Z" fill="#FFFF00" stroke-width="1"></path><path d="M2.1921874999999997 1.0925h1.0925v1.0996875H2.1921874999999997Z" fill="#FFFF00" stroke-width="1"></path></g></svg>