<svg xmlns="http://www.w3.org/2000/svg" viewBox="-0.5 -0.5 24 24" id="Business-Products-Data-File-Bars--Streamline-Pixel.svg" height="24" width="24"><desc>Business Products Data File Bars Streamline Icon: https://streamlinehq.com</desc><title>business-products-data-file-bars</title><g><path d="M19.7153125 4.3771875h-3.2846875000000004V1.0925h1.0925V0H2.1921874999999997v23h18.615624999999998V3.2846875000000004h-1.0925Zm0 17.5303125H3.2846875000000004V1.0925h12.04625v4.3843749999999995h4.3843749999999995Z" fill="#FFFF00" stroke-width="1"></path><path d="M18.6228125 2.1921874999999997h1.0925v1.0925h-1.0925Z" fill="#FFFF00" stroke-width="1"></path><path d="M17.523125 1.0925h1.0996875v1.0996875h-1.0996875Z" fill="#FFFF00" stroke-width="1"></path><path d="m15.3309375 16.430625 -1.0925 0 0 -6.5765625000000005 -2.1921874999999997 0 0 6.5765625000000005 -1.0925 0 0 -4.3843749999999995 -2.1921874999999997 0 0 4.3843749999999995 -3.2846875000000004 0 0 -2.1921874999999997 1.0925 0 0 -1.0925 -1.0925 0 0 -2.1921874999999997 1.0925 0 0 -1.0996875 -1.0925 0 0 -2.185 -1.0925 0 0 9.854062500000001 14.2384375 0 0 -1.0925 -1.0996875 0 0 -5.476875 -2.1921874999999997 0 0 5.476875z" fill="#FFFF00" stroke-width="1"></path></g></svg>