<svg xmlns="http://www.w3.org/2000/svg" viewBox="-0.5 -0.5 24 24" id="Interface-Essential-Navigation-Left-Circle-1--Streamline-Pixel.svg" height="24" width="24"><desc>Interface Essential Navigation Left Circle 1 Streamline Icon: https://streamlinehq.com</desc><title>interface-essential-navigation-left-circle-1</title><path d="M21.9075 6.569375000000001h-1.0996875V4.3771875h-1.0925V3.2846875000000004H18.615624999999998V2.1921874999999997h-2.185V1.0925h-2.1921874999999997V0h-5.476875v1.0925H6.569375000000001v1.0996875H4.3771875v1.0925H3.2846875000000004v1.0925H2.1921874999999997v2.1921874999999997H1.0925v2.1921874999999997H0v5.476875h1.0925v2.1921874999999997h1.0996875v2.185h1.0925v1.0996875h1.0925v1.0925h2.1921874999999997v1.0996875h2.1921874999999997V23h5.476875v-1.0925h2.1921874999999997v-1.0996875h2.185v-1.0925h1.0996875V18.615624999999998h1.0925v-2.185h1.0996875v-2.1921874999999997H23v-5.476875h-1.0925ZM18.615624999999998 15.3309375h-1.0925v1.0996875h-1.0925v1.0925h-3.2846875000000004v-1.0925h1.0925v-1.0996875h1.0925v-1.0925h-1.0925v-1.0925h-4.3843749999999995v2.185h-1.0925v-1.0925h-1.0925v-1.0925H6.569375000000001v-1.0996875H5.476875v-1.0925H4.3771875v-1.0996875h1.0996875v-1.0925h1.0925v-1.0925h1.0996875V6.569375000000001h1.0925V5.476875h1.0925v2.1921874999999997h6.5765625000000005v1.0925h1.0925v1.0925h1.0925Z" fill="#FFFF00" stroke-width="1"></path></svg>