<svg xmlns="http://www.w3.org/2000/svg" viewBox="-0.5 -0.5 24 24" id="Shopping-Shipping-Receipt-Slip--Streamline-Pixel.svg" height="24" width="24"><desc>Shopping Shipping Receipt Slip Streamline Icon: https://streamlinehq.com</desc><title>shopping-shipping-receipt-slip</title><g><path d="m21.903906250000002 23 0 -23 -2.1921874999999997 0 0 1.0996875 1.0925 0 0 20.8078125 -1.0925 0 0 1.0925 2.1921874999999997 0z" fill="#080261" stroke-width="1"></path><path d="M18.61921875 20.815h1.0925v1.0925h-1.0925Z" fill="#080261" stroke-width="1"></path><path d="M18.61921875 1.0996875h1.0925v1.0925h-1.0925Z" fill="#080261" stroke-width="1"></path><path d="M17.51953125 19.7153125h1.0996875v1.0996875h-1.0996875Z" fill="#080261" stroke-width="1"></path><path d="M17.51953125 13.145937499999999h1.0996875v2.1921874999999997h-1.0996875Z" fill="#080261" stroke-width="1"></path><path d="M17.51953125 9.86125h1.0996875v1.0925h-1.0996875Z" fill="#080261" stroke-width="1"></path><path d="M17.51953125 2.1921874999999997h1.0996875v1.0925h-1.0996875Z" fill="#080261" stroke-width="1"></path><path d="M16.42703125 20.815h1.0925v1.0925h-1.0925Z" fill="#080261" stroke-width="1"></path><path d="m16.42703125 8.7615625 0 -1.0925 -1.0925 0 0 1.0925 -1.0996875 0 0 1.0996875 1.0996875 0 0 2.185 -1.0996875 0 0 1.0996875 1.0996875 0 0 2.1921874999999997 -1.0996875 0 0 1.0925 1.0996875 0 0 1.0925 1.0925 0 0 -1.0925 1.0925 0 0 -1.0925 -1.0925 0 0 -2.1921874999999997 1.0925 0 0 -1.0996875 -1.0925 0 0 -2.185 1.0925 0 0 -1.0996875 -1.0925 0z" fill="#080261" stroke-width="1"></path><path d="M16.42703125 1.0996875h1.0925v1.0925h-1.0925Z" fill="#080261" stroke-width="1"></path><path d="M15.334531250000001 21.9075h1.0925V23h-1.0925Z" fill="#080261" stroke-width="1"></path><path d="M15.334531250000001 0h1.0925v1.0996875h-1.0925Z" fill="#080261" stroke-width="1"></path><path d="M14.23484375 20.815h1.0996875v1.0925h-1.0996875Z" fill="#080261" stroke-width="1"></path><path d="M14.23484375 1.0996875h1.0996875v1.0925h-1.0996875Z" fill="#080261" stroke-width="1"></path><path d="M13.14234375 19.7153125h1.0925v1.0996875h-1.0925Z" fill="#080261" stroke-width="1"></path><path d="M13.14234375 14.2384375h1.0925v1.0996875h-1.0925Z" fill="#080261" stroke-width="1"></path><path d="M13.14234375 9.86125h1.0925v2.185h-1.0925Z" fill="#080261" stroke-width="1"></path><path d="M13.14234375 2.1921874999999997h1.0925v1.0925h-1.0925Z" fill="#080261" stroke-width="1"></path><path d="M12.042656249999999 20.815h1.0996875v1.0925h-1.0996875Z" fill="#080261" stroke-width="1"></path><path d="M12.042656249999999 1.0996875h1.0996875v1.0925h-1.0996875Z" fill="#080261" stroke-width="1"></path><path d="M10.95015625 21.9075h1.0925V23h-1.0925Z" fill="#080261" stroke-width="1"></path><path d="M10.95015625 0h1.0925v1.0996875h-1.0925Z" fill="#080261" stroke-width="1"></path><path d="M9.85765625 20.815h1.0925v1.0925h-1.0925Z" fill="#080261" stroke-width="1"></path><path d="M9.85765625 1.0996875h1.0925v1.0925h-1.0925Z" fill="#080261" stroke-width="1"></path><path d="M8.75796875 19.7153125h1.0996875v1.0996875h-1.0996875Z" fill="#080261" stroke-width="1"></path><path d="M7.66546875 16.430625h3.2846875000000004v1.0925h-3.2846875000000004Z" fill="#080261" stroke-width="1"></path><path d="M7.66546875 13.145937499999999h3.2846875000000004v1.0925h-3.2846875000000004Z" fill="#080261" stroke-width="1"></path><path d="M7.66546875 9.86125h3.2846875000000004v1.0925h-3.2846875000000004Z" fill="#080261" stroke-width="1"></path><path d="M7.66546875 6.5765625000000005h3.2846875000000004v1.0925h-3.2846875000000004Z" fill="#080261" stroke-width="1"></path><path d="M8.75796875 2.1921874999999997h1.0996875v1.0925h-1.0996875Z" fill="#080261" stroke-width="1"></path><path d="M7.66546875 20.815h1.0925v1.0925h-1.0925Z" fill="#080261" stroke-width="1"></path><path d="M7.66546875 1.0996875h1.0925v1.0925h-1.0925Z" fill="#080261" stroke-width="1"></path><path d="M6.572968749999999 21.9075h1.0925V23h-1.0925Z" fill="#080261" stroke-width="1"></path><path d="M6.572968749999999 0h1.0925v1.0996875h-1.0925Z" fill="#080261" stroke-width="1"></path><path d="M5.47328125 20.815h1.0996875v1.0925h-1.0996875Z" fill="#080261" stroke-width="1"></path><path d="M5.47328125 1.0996875h1.0996875v1.0925h-1.0996875Z" fill="#080261" stroke-width="1"></path><path d="M4.38078125 19.7153125h1.0925v1.0996875h-1.0925Z" fill="#080261" stroke-width="1"></path><path d="M4.38078125 15.338125h2.1921874999999997v2.185h-2.1921874999999997Z" fill="#080261" stroke-width="1"></path><path d="M4.38078125 12.04625h2.1921874999999997v2.1921874999999997h-2.1921874999999997Z" fill="#080261" stroke-width="1"></path><path d="M4.38078125 8.7615625h2.1921874999999997v2.1921874999999997h-2.1921874999999997Z" fill="#080261" stroke-width="1"></path><path d="M4.38078125 5.476875h2.1921874999999997v2.1921874999999997h-2.1921874999999997Z" fill="#080261" stroke-width="1"></path><path d="M4.38078125 2.1921874999999997h1.0925v1.0925h-1.0925Z" fill="#080261" stroke-width="1"></path><path d="M3.28109375 20.815h1.0996875v1.0925h-1.0996875Z" fill="#080261" stroke-width="1"></path><path d="M3.28109375 1.0996875h1.0996875v1.0925h-1.0996875Z" fill="#080261" stroke-width="1"></path><path d="m2.18859375 1.0996875 1.0925 0 0 -1.0996875 -2.185 0 0 23 2.185 0 0 -1.0925 -1.0925 0 0 -20.8078125z" fill="#080261" stroke-width="1"></path></g></svg>