<svg xmlns="http://www.w3.org/2000/svg" xmlns:xlink="http://www.w3.org/1999/xlink" width="134" zoomAndPan="magnify" viewBox="180 140 12 90" height="64" preserveAspectRatio="xMidYMid meet" version="1.0"><defs><g/></defs><g fill="currentColor" fill-opacity="1"><g transform="translate(115.0801, 198.045105)"><g><path d="M 19.0625 -30.703125 L 19.0625 -3.359375 C 19.09375 -2.546875 19.394531 -1.859375 19.96875 -1.296875 C 20.539062 -0.742188 21.226562 -0.46875 22.03125 -0.46875 L 22.59375 -0.46875 L 22.640625 0 L 8.484375 0 L 8.484375 -0.46875 L 9.078125 -0.46875 C 9.859375 -0.46875 10.535156 -0.742188 11.109375 -1.296875 C 11.679688 -1.859375 12 -2.53125 12.0625 -3.3125 L 12.0625 -30.703125 L 5.78125 -30.703125 C 4.351562 -30.671875 3.21875 -30.21875 2.375 -29.34375 C 1.539062 -28.476562 1.125 -27.347656 1.125 -25.953125 L 1.125 -25.390625 L 0.65625 -25.390625 L 0.65625 -33.5 C 1.925781 -32.96875 3.757812 -32.6875 6.15625 -32.65625 L 24.921875 -32.65625 C 25.890625 -32.65625 26.9375 -32.75 28.0625 -32.9375 C 29.195312 -33.125 29.984375 -33.3125 30.421875 -33.5 L 30.421875 -25.390625 L 29.953125 -25.390625 L 29.953125 -25.953125 C 29.953125 -27.878906 29.222656 -29.242188 27.765625 -30.046875 C 27.085938 -30.453125 26.265625 -30.671875 25.296875 -30.703125 Z M 19.0625 -30.703125 "/></g></g></g><g fill="currentColor" fill-opacity="1"><g transform="translate(110.537256, 204.316744)"><g><path d="M 24.640625 -0.46875 C 25.453125 -0.46875 26.078125 -0.671875 26.515625 -1.078125 C 27.222656 -1.785156 27.59375 -2.546875 27.625 -3.359375 L 27.625 -15.234375 L 12.53125 -15.234375 L 12.53125 -3.40625 C 12.53125 -2.59375 12.820312 -1.898438 13.40625 -1.328125 C 14 -0.753906 14.703125 -0.46875 15.515625 -0.46875 L 16.078125 -0.46875 L 16.125 0 L 1.953125 0 L 1.953125 -0.46875 L 2.5625 -0.46875 C 3.375 -0.46875 4.066406 -0.753906 4.640625 -1.328125 C 5.210938 -1.898438 5.515625 -2.59375 5.546875 -3.40625 L 5.546875 -29.21875 C 5.515625 -30.019531 5.210938 -30.707031 4.640625 -31.28125 C 4.066406 -31.863281 3.375 -32.15625 2.5625 -32.15625 L 1.953125 -32.15625 L 1.953125 -32.609375 L 16.125 -32.609375 L 16.078125 -32.15625 L 15.515625 -32.15625 C 14.703125 -32.15625 14 -31.863281 13.40625 -31.28125 C 12.820312 -30.707031 12.53125 -30.019531 12.53125 -29.21875 L 12.53125 -17.234375 L 27.625 -17.234375 L 27.625 -29.21875 C 27.59375 -30.019531 27.289062 -30.707031 26.71875 -31.28125 C 26.144531 -31.863281 25.453125 -32.15625 24.640625 -32.15625 L 24.046875 -32.15625 L 24.046875 -32.609375 L 38.203125 -32.609375 L 38.203125 -32.15625 L 37.59375 -32.15625 C 36.789062 -32.15625 36.09375 -31.863281 35.5 -31.28125 C 34.914062 -30.707031 34.625 -30.019531 34.625 -29.21875 L 34.625 -3.40625 C 34.625 -2.59375 34.914062 -1.898438 35.5 -1.328125 C 36.09375 -0.753906 36.789062 -0.46875 37.59375 -0.46875 L 38.203125 -0.46875 L 38.203125 0 L 24.046875 0 L 24.046875 -0.46875 Z M 24.640625 -0.46875 "/></g></g></g><g fill="currentColor" fill-opacity="1"><g transform="translate(149.006724, 193.047502)"><g><path d="M 12.28125 -17.453125 L 18.984375 -17.421875 L 18.984375 -16.375 L 18.625 -16.375 C 18.382812 -16.375 18.175781 -16.285156 18 -16.109375 C 17.832031 -15.929688 17.75 -15.722656 17.75 -15.484375 L 17.75 -1.90625 C 17.75 -1.664062 17.832031 -1.46875 18 -1.3125 C 18.175781 -1.15625 18.382812 -1.078125 18.625 -1.078125 L 18.984375 -1.078125 L 18.984375 0 L 12.28125 0 L 12.28125 -1.078125 L 12.640625 -1.078125 C 12.878906 -1.078125 13.082031 -1.15625 13.25 -1.3125 C 13.425781 -1.46875 13.515625 -1.664062 13.515625 -1.90625 L 13.515625 -8.1875 L 6.3125 -8.1875 L 6.3125 -1.90625 C 6.3125 -1.664062 6.394531 -1.46875 6.5625 -1.3125 C 6.726562 -1.15625 6.929688 -1.078125 7.171875 -1.078125 L 7.53125 -1.078125 L 7.53125 0 L 0.8125 0 L 0.8125 -1.078125 L 1.203125 -1.078125 C 1.429688 -1.078125 1.625 -1.15625 1.78125 -1.3125 C 1.945312 -1.46875 2.03125 -1.664062 2.03125 -1.90625 L 2.03125 -15.515625 C 2.03125 -15.816406 1.945312 -16.035156 1.78125 -16.171875 C 1.625 -16.304688 1.429688 -16.375 1.203125 -16.375 L 0.8125 -16.375 L 0.8125 -17.453125 L 7.53125 -17.421875 L 7.53125 -16.375 L 7.171875 -16.375 C 6.929688 -16.375 6.726562 -16.285156 6.5625 -16.109375 C 6.394531 -15.929688 6.3125 -15.722656 6.3125 -15.484375 L 6.3125 -9.265625 L 13.515625 -9.265625 L 13.515625 -15.515625 C 13.515625 -15.753906 13.425781 -15.957031 13.25 -16.125 C 13.082031 -16.289062 12.878906 -16.375 12.640625 -16.375 L 12.28125 -16.375 Z M 12.28125 -17.453125 "/></g></g></g><g fill="currentColor" fill-opacity="1"><g transform="translate(168.790296, 193.047502)"><g><path d="M 10.21875 -9.234375 C 10.5625 -9.234375 10.851562 -9.351562 11.09375 -9.59375 C 11.332031 -9.832031 11.453125 -10.125 11.453125 -10.46875 L 11.453125 -10.875 L 12.53125 -10.875 L 12.53125 -6.546875 L 11.453125 -6.546875 L 11.453125 -6.9375 C 11.453125 -7.269531 11.332031 -7.5625 11.09375 -7.8125 C 10.851562 -8.0625 10.5625 -8.1875 10.21875 -8.1875 L 6.3125 -8.1875 L 6.3125 -1.078125 L 12.109375 -1.078125 C 12.585938 -1.078125 13 -1.226562 13.34375 -1.53125 C 13.695312 -1.84375 13.890625 -2.226562 13.921875 -2.6875 L 13.921875 -3.265625 L 15 -3.265625 L 15 0 L 0.8125 0 L 0.8125 -1.078125 L 1.203125 -1.078125 C 1.429688 -1.078125 1.625 -1.15625 1.78125 -1.3125 C 1.945312 -1.46875 2.03125 -1.664062 2.03125 -1.90625 L 2.03125 -15.484375 C 2.03125 -15.722656 1.945312 -15.929688 1.78125 -16.109375 C 1.625 -16.285156 1.429688 -16.375 1.203125 -16.375 L 0.8125 -16.375 L 0.8125 -17.421875 L 15 -17.421875 L 15 -14.171875 L 13.921875 -14.171875 L 13.921875 -14.734375 C 13.890625 -15.191406 13.695312 -15.578125 13.34375 -15.890625 C 13 -16.210938 12.585938 -16.375 12.109375 -16.375 L 6.3125 -16.375 L 6.3125 -9.234375 Z M 10.21875 -9.234375 "/></g></g></g><g fill="currentColor" fill-opacity="1"><g transform="translate(184.210723, 193.047502)"><g><path d="M 7.53125 0 L 0.8125 0 L 0.8125 -1.078125 L 1.203125 -1.078125 C 1.429688 -1.078125 1.625 -1.160156 1.78125 -1.328125 C 1.945312 -1.492188 2.03125 -1.695312 2.03125 -1.9375 L 2.03125 -15.484375 C 2.03125 -15.722656 1.945312 -15.929688 1.78125 -16.109375 C 1.625 -16.285156 1.429688 -16.375 1.203125 -16.375 L 0.8125 -16.375 L 0.8125 -17.421875 L 9.78125 -17.421875 C 10.75 -17.421875 11.625 -17.226562 12.40625 -16.84375 C 13.195312 -16.457031 13.828125 -15.894531 14.296875 -15.15625 C 14.765625 -14.414062 15 -13.53125 15 -12.5 C 15 -11.394531 14.734375 -10.457031 14.203125 -9.6875 C 13.679688 -8.925781 12.992188 -8.367188 12.140625 -8.015625 L 14.9375 -2.265625 C 15.101562 -1.890625 15.359375 -1.597656 15.703125 -1.390625 C 16.054688 -1.179688 16.441406 -1.078125 16.859375 -1.078125 L 17.1875 -1.078125 L 17.1875 0 L 12.765625 0 C 12.347656 0 11.957031 -0.113281 11.59375 -0.34375 C 11.238281 -0.570312 10.972656 -0.875 10.796875 -1.25 L 7.6875 -7.5625 L 6.3125 -7.5625 L 6.3125 -1.90625 C 6.3125 -1.664062 6.394531 -1.46875 6.5625 -1.3125 C 6.726562 -1.15625 6.929688 -1.078125 7.171875 -1.078125 L 7.53125 -1.078125 Z M 6.3125 -8.609375 L 8.015625 -8.609375 C 8.828125 -8.609375 9.492188 -8.976562 10.015625 -9.71875 C 10.535156 -10.457031 10.796875 -11.394531 10.796875 -12.53125 C 10.796875 -13.582031 10.539062 -14.484375 10.03125 -15.234375 C 9.519531 -15.992188 8.847656 -16.375 8.015625 -16.375 L 6.3125 -16.375 Z M 6.3125 -8.609375 "/></g></g></g><g fill="currentColor" fill-opacity="1"><g transform="translate(201.603537, 193.047502)"><g><path d="M 0.8125 -17.453125 L 7.53125 -17.421875 L 7.53125 -16.375 L 7.171875 -16.375 C 6.929688 -16.375 6.726562 -16.285156 6.5625 -16.109375 C 6.394531 -15.929688 6.3125 -15.722656 6.3125 -15.484375 L 6.3125 -1.90625 C 6.3125 -1.664062 6.394531 -1.46875 6.5625 -1.3125 C 6.726562 -1.15625 6.929688 -1.078125 7.171875 -1.078125 L 7.53125 -1.078125 L 7.53125 0 L 0.8125 0 L 0.8125 -1.078125 L 1.203125 -1.078125 C 1.429688 -1.078125 1.625 -1.15625 1.78125 -1.3125 C 1.945312 -1.46875 2.03125 -1.664062 2.03125 -1.90625 L 2.03125 -15.515625 C 2.03125 -15.753906 1.945312 -15.957031 1.78125 -16.125 C 1.625 -16.289062 1.429688 -16.375 1.203125 -16.375 L 0.8125 -16.375 Z M 0.8125 -17.453125 "/></g></g></g><g fill="currentColor" fill-opacity="1"><g transform="translate(209.941327, 193.047502)"><g><path d="M 7.53125 0 L 0.8125 0 L 0.8125 -1.078125 L 1.203125 -1.078125 C 1.429688 -1.078125 1.625 -1.160156 1.78125 -1.328125 C 1.945312 -1.492188 2.03125 -1.695312 2.03125 -1.9375 L 2.03125 -15.484375 C 2.03125 -15.722656 1.945312 -15.929688 1.78125 -16.109375 C 1.625 -16.285156 1.429688 -16.375 1.203125 -16.375 L 0.8125 -16.375 L 0.8125 -17.421875 L 11.03125 -17.421875 C 12.007812 -17.421875 12.890625 -17.195312 13.671875 -16.75 C 14.460938 -16.300781 15.09375 -15.65625 15.5625 -14.8125 C 16.03125 -13.976562 16.265625 -12.976562 16.265625 -11.8125 C 16.265625 -10.632812 16.03125 -9.617188 15.5625 -8.765625 C 15.09375 -7.921875 14.460938 -7.273438 13.671875 -6.828125 C 12.890625 -6.378906 12.007812 -6.15625 11.03125 -6.15625 L 6.3125 -6.15625 L 6.3125 -1.90625 C 6.3125 -1.664062 6.394531 -1.46875 6.5625 -1.3125 C 6.726562 -1.15625 6.929688 -1.078125 7.171875 -1.078125 L 7.53125 -1.078125 Z M 6.3125 -7.234375 L 8.671875 -7.234375 C 9.660156 -7.234375 10.460938 -7.660156 11.078125 -8.515625 C 11.703125 -9.367188 12.015625 -10.46875 12.015625 -11.8125 C 12.015625 -12.644531 11.875 -13.410156 11.59375 -14.109375 C 11.3125 -14.804688 10.921875 -15.359375 10.421875 -15.765625 C 9.929688 -16.171875 9.347656 -16.375 8.671875 -16.375 L 6.3125 -16.375 Z M 6.3125 -7.234375 "/></g></g></g><g fill="currentColor" fill-opacity="1"><g transform="translate(226.79622, 193.047502)"><g><path d="M 8.734375 -17.8125 L 9.796875 -17.8125 L 16.171875 -2.15625 C 16.492188 -1.4375 17.039062 -1.078125 17.8125 -1.078125 L 18.296875 -1.078125 L 18.296875 0 L 10.703125 0 L 10.703125 -1.078125 L 11.359375 -1.078125 C 11.492188 -1.078125 11.609375 -1.140625 11.703125 -1.265625 C 11.804688 -1.398438 11.832031 -1.535156 11.78125 -1.671875 L 10.375 -5.171875 L 4.6875 -5.171875 L 3.3125 -1.671875 C 3.257812 -1.535156 3.273438 -1.398438 3.359375 -1.265625 C 3.453125 -1.140625 3.566406 -1.078125 3.703125 -1.078125 L 4.421875 -1.078125 L 4.421875 0 L 0.234375 0 L 0.234375 -1.078125 L 0.71875 -1.078125 C 1.507812 -1.078125 2.066406 -1.4375 2.390625 -2.15625 Z M 5.109375 -6.21875 L 9.984375 -6.21875 L 7.53125 -12.34375 Z M 5.109375 -6.21875 "/></g></g></g><g fill="currentColor" fill-opacity="1"><g transform="translate(245.324638, 193.047502)"><g><path d="M 0.234375 -17.421875 L 8.515625 -17.421875 L 8.515625 -16.375 L 7.6875 -16.375 C 7.539062 -16.375 7.414062 -16.304688 7.3125 -16.171875 C 7.21875 -16.035156 7.210938 -15.882812 7.296875 -15.71875 L 11.15625 -8.78125 L 15 -15.71875 C 15.101562 -15.882812 15.101562 -16.035156 15 -16.171875 C 14.90625 -16.304688 14.785156 -16.375 14.640625 -16.375 L 13.8125 -16.375 L 13.8125 -17.421875 L 18.4375 -17.421875 L 18.4375 -16.375 L 17.9375 -16.375 C 17.519531 -16.375 17.140625 -16.265625 16.796875 -16.046875 C 16.460938 -15.828125 16.1875 -15.539062 15.96875 -15.1875 L 11.484375 -7.109375 L 11.484375 -1.90625 C 11.484375 -1.664062 11.5625 -1.46875 11.71875 -1.3125 C 11.875 -1.15625 12.070312 -1.078125 12.3125 -1.078125 L 12.671875 -1.078125 L 12.671875 0 L 5.984375 0 L 5.984375 -1.078125 L 6.34375 -1.078125 C 6.582031 -1.078125 6.789062 -1.15625 6.96875 -1.3125 C 7.144531 -1.46875 7.234375 -1.664062 7.234375 -1.90625 L 7.234375 -7.109375 L 2.8125 -15.125 C 2.332031 -15.957031 1.601562 -16.375 0.625 -16.375 L 0.234375 -16.375 Z M 0.234375 -17.421875 "/></g></g></g><g fill="currentColor" fill-opacity="1"><g transform="translate(154.975115, 200.586121)"><g><path d="M 3.5 0.125 C 2.613281 0.113281 1.890625 -0.171875 1.328125 -0.734375 C 0.773438 -1.296875 0.5 -2.035156 0.5 -2.953125 C 0.5 -3.867188 0.773438 -4.601562 1.328125 -5.15625 C 1.890625 -5.71875 2.632812 -6 3.5625 -6 C 4.3125 -6 4.972656 -5.8125 5.546875 -5.4375 L 5.71875 -4.25 L 5.640625 -4.25 C 5.515625 -4.726562 5.265625 -5.097656 4.890625 -5.359375 C 4.515625 -5.617188 4.070312 -5.75 3.5625 -5.75 C 2.820312 -5.75 2.234375 -5.492188 1.796875 -4.984375 C 1.359375 -4.472656 1.140625 -3.796875 1.140625 -2.953125 C 1.140625 -2.117188 1.351562 -1.441406 1.78125 -0.921875 C 2.21875 -0.410156 2.789062 -0.148438 3.5 -0.140625 C 4.132812 -0.140625 4.660156 -0.304688 5.078125 -0.640625 C 5.535156 -1.015625 5.8125 -1.617188 5.90625 -2.453125 L 5.96875 -2.453125 L 5.875 -1.140625 C 5.363281 -0.296875 4.570312 0.125 3.5 0.125 Z M 3.5 0.125 "/></g></g></g><g fill="currentColor" fill-opacity="1"><g transform="translate(161.364271, 200.586121)"><g><path d="M 1.421875 -5.15625 C 1.984375 -5.71875 2.710938 -6 3.609375 -6 C 4.503906 -6 5.226562 -5.71875 5.78125 -5.15625 C 6.34375 -4.59375 6.625 -3.851562 6.625 -2.9375 C 6.625 -2.03125 6.34375 -1.289062 5.78125 -0.71875 C 5.226562 -0.15625 4.503906 0.125 3.609375 0.125 C 2.710938 0.125 1.984375 -0.15625 1.421875 -0.71875 C 0.867188 -1.289062 0.59375 -2.03125 0.59375 -2.9375 C 0.59375 -3.851562 0.867188 -4.59375 1.421875 -5.15625 Z M 1.875 -0.90625 C 2.3125 -0.394531 2.890625 -0.140625 3.609375 -0.140625 C 4.328125 -0.140625 4.898438 -0.394531 5.328125 -0.90625 C 5.765625 -1.425781 5.984375 -2.101562 5.984375 -2.9375 C 5.984375 -3.5 5.882812 -3.988281 5.6875 -4.40625 C 5.488281 -4.832031 5.207031 -5.160156 4.84375 -5.390625 C 4.488281 -5.628906 4.078125 -5.75 3.609375 -5.75 C 2.890625 -5.75 2.3125 -5.488281 1.875 -4.96875 C 1.445312 -4.457031 1.234375 -3.78125 1.234375 -2.9375 C 1.234375 -2.101562 1.445312 -1.425781 1.875 -0.90625 Z M 1.875 -0.90625 "/></g></g></g><g fill="currentColor" fill-opacity="1"><g transform="translate(168.409155, 200.586121)"><g><path d="M 6.546875 -5.796875 C 6.398438 -5.796875 6.273438 -5.742188 6.171875 -5.640625 C 6.078125 -5.546875 6.023438 -5.429688 6.015625 -5.296875 L 6.015625 -0.953125 C 6.015625 -0.628906 6.035156 -0.320312 6.078125 -0.03125 L 6.09375 0.125 L 6.015625 0.125 L 1.4375 -4.78125 L 1.4375 -0.59375 C 1.445312 -0.394531 1.535156 -0.25 1.703125 -0.15625 C 1.773438 -0.101562 1.859375 -0.078125 1.953125 -0.078125 L 2.109375 -0.078125 L 2.109375 0 L 0.375 0 L 0.375 -0.078125 L 0.53125 -0.078125 C 0.675781 -0.078125 0.796875 -0.125 0.890625 -0.21875 C 0.992188 -0.320312 1.046875 -0.445312 1.046875 -0.59375 L 1.046875 -4.953125 C 1.046875 -5.296875 1.023438 -5.601562 0.984375 -5.875 L 0.96875 -6.015625 L 1.0625 -6.015625 L 5.640625 -1.125 L 5.640625 -5.28125 C 5.628906 -5.425781 5.570312 -5.546875 5.46875 -5.640625 C 5.375 -5.742188 5.257812 -5.796875 5.125 -5.796875 L 4.953125 -5.796875 L 4.953125 -5.890625 L 6.6875 -5.890625 L 6.6875 -5.796875 Z M 6.546875 -5.796875 "/></g></g></g><g fill="currentColor" fill-opacity="1"><g transform="translate(175.479256, 200.586121)"><g><path d="M 4.953125 -5.140625 C 4.953125 -5.273438 4.90625 -5.390625 4.8125 -5.484375 C 4.71875 -5.578125 4.601562 -5.628906 4.46875 -5.640625 L 2.875 -5.640625 L 2.875 -0.609375 C 2.882812 -0.460938 2.9375 -0.335938 3.03125 -0.234375 C 3.132812 -0.128906 3.257812 -0.078125 3.40625 -0.078125 L 3.515625 -0.078125 L 3.515625 0 L 1.6875 0 L 1.6875 -0.078125 L 1.796875 -0.078125 C 1.941406 -0.078125 2.0625 -0.128906 2.15625 -0.234375 C 2.257812 -0.335938 2.316406 -0.457031 2.328125 -0.59375 L 2.328125 -5.640625 L 0.734375 -5.640625 C 0.597656 -5.628906 0.484375 -5.578125 0.390625 -5.484375 C 0.296875 -5.390625 0.25 -5.273438 0.25 -5.140625 L 0.25 -5 L 0.171875 -4.984375 L 0.171875 -6.046875 C 0.253906 -6.015625 0.398438 -5.976562 0.609375 -5.9375 C 0.816406 -5.90625 1.003906 -5.890625 1.171875 -5.890625 L 4.015625 -5.890625 C 4.296875 -5.890625 4.523438 -5.910156 4.703125 -5.953125 C 4.878906 -5.992188 4.988281 -6.023438 5.03125 -6.046875 L 5.03125 -4.984375 L 4.953125 -5 Z M 4.953125 -5.140625 "/></g></g></g><g fill="currentColor" fill-opacity="1"><g transform="translate(180.674641, 200.586121)"><g><path d="M 2.234375 -5.625 L 1.703125 -5.625 L 1.703125 -0.609375 C 1.703125 -0.460938 1.753906 -0.335938 1.859375 -0.234375 C 1.960938 -0.128906 2.085938 -0.078125 2.234375 -0.078125 L 2.34375 -0.078125 L 2.34375 0 L 0.5 0 L 0.5 -0.078125 L 0.609375 -0.078125 C 0.753906 -0.078125 0.878906 -0.128906 0.984375 -0.234375 C 1.085938 -0.335938 1.144531 -0.460938 1.15625 -0.609375 L 1.15625 -5.265625 C 1.144531 -5.410156 1.085938 -5.535156 0.984375 -5.640625 C 0.878906 -5.742188 0.753906 -5.796875 0.609375 -5.796875 L 0.5 -5.796875 L 0.5 -5.890625 L 2.78125 -5.890625 C 3.28125 -5.890625 3.675781 -5.742188 3.96875 -5.453125 C 4.257812 -5.171875 4.40625 -4.804688 4.40625 -4.359375 C 4.40625 -3.910156 4.265625 -3.519531 3.984375 -3.1875 C 3.710938 -2.863281 3.378906 -2.703125 2.984375 -2.703125 C 3.066406 -2.660156 3.164062 -2.582031 3.28125 -2.46875 C 3.394531 -2.351562 3.5 -2.234375 3.59375 -2.109375 C 4.070312 -1.421875 4.382812 -0.992188 4.53125 -0.828125 C 4.675781 -0.671875 4.78125 -0.5625 4.84375 -0.5 C 4.90625 -0.445312 4.972656 -0.390625 5.046875 -0.328125 C 5.117188 -0.273438 5.191406 -0.234375 5.265625 -0.203125 C 5.421875 -0.117188 5.59375 -0.078125 5.78125 -0.078125 L 5.78125 0 L 5.328125 0 C 5.078125 0 4.847656 -0.0390625 4.640625 -0.125 C 4.441406 -0.21875 4.289062 -0.304688 4.1875 -0.390625 C 4.082031 -0.484375 3.988281 -0.570312 3.90625 -0.65625 C 3.832031 -0.75 3.625 -1.039062 3.28125 -1.53125 C 2.945312 -2.03125 2.75 -2.3125 2.6875 -2.375 C 2.632812 -2.445312 2.578125 -2.519531 2.515625 -2.59375 C 2.335938 -2.78125 2.15625 -2.875 1.96875 -2.875 L 1.96875 -2.953125 C 2.019531 -2.953125 2.082031 -2.953125 2.15625 -2.953125 C 2.226562 -2.953125 2.316406 -2.953125 2.421875 -2.953125 C 3.117188 -2.972656 3.554688 -3.265625 3.734375 -3.828125 C 3.765625 -3.941406 3.78125 -4.046875 3.78125 -4.140625 C 3.78125 -4.242188 3.78125 -4.3125 3.78125 -4.34375 C 3.769531 -4.71875 3.671875 -5.019531 3.484375 -5.25 C 3.304688 -5.476562 3.054688 -5.597656 2.734375 -5.609375 C 2.597656 -5.617188 2.429688 -5.625 2.234375 -5.625 Z M 2.234375 -5.625 "/></g></g></g><g fill="currentColor" fill-opacity="1"><g transform="translate(186.366028, 200.586121)"><g><path d="M 1.421875 -5.15625 C 1.984375 -5.71875 2.710938 -6 3.609375 -6 C 4.503906 -6 5.226562 -5.71875 5.78125 -5.15625 C 6.34375 -4.59375 6.625 -3.851562 6.625 -2.9375 C 6.625 -2.03125 6.34375 -1.289062 5.78125 -0.71875 C 5.226562 -0.15625 4.503906 0.125 3.609375 0.125 C 2.710938 0.125 1.984375 -0.15625 1.421875 -0.71875 C 0.867188 -1.289062 0.59375 -2.03125 0.59375 -2.9375 C 0.59375 -3.851562 0.867188 -4.59375 1.421875 -5.15625 Z M 1.875 -0.90625 C 2.3125 -0.394531 2.890625 -0.140625 3.609375 -0.140625 C 4.328125 -0.140625 4.898438 -0.394531 5.328125 -0.90625 C 5.765625 -1.425781 5.984375 -2.101562 5.984375 -2.9375 C 5.984375 -3.5 5.882812 -3.988281 5.6875 -4.40625 C 5.488281 -4.832031 5.207031 -5.160156 4.84375 -5.390625 C 4.488281 -5.628906 4.078125 -5.75 3.609375 -5.75 C 2.890625 -5.75 2.3125 -5.488281 1.875 -4.96875 C 1.445312 -4.457031 1.234375 -3.78125 1.234375 -2.9375 C 1.234375 -2.101562 1.445312 -1.425781 1.875 -0.90625 Z M 1.875 -0.90625 "/></g></g></g><g fill="currentColor" fill-opacity="1"><g transform="translate(193.410911, 200.586121)"><g><path d="M 0.609375 -0.078125 C 0.753906 -0.078125 0.878906 -0.128906 0.984375 -0.234375 C 1.085938 -0.335938 1.144531 -0.460938 1.15625 -0.609375 L 1.15625 -5.265625 C 1.144531 -5.410156 1.085938 -5.535156 0.984375 -5.640625 C 0.878906 -5.742188 0.753906 -5.796875 0.609375 -5.796875 L 0.5 -5.796875 L 0.5 -5.890625 L 2.34375 -5.890625 L 2.34375 -5.796875 L 2.234375 -5.796875 C 2.035156 -5.796875 1.882812 -5.710938 1.78125 -5.546875 C 1.726562 -5.453125 1.703125 -5.359375 1.703125 -5.265625 L 1.703125 -0.265625 L 2.90625 -0.265625 C 3.3125 -0.265625 3.625 -0.351562 3.84375 -0.53125 C 4.0625 -0.71875 4.242188 -0.992188 4.390625 -1.359375 L 4.484375 -1.359375 L 4 0 L 0.5 0 L 0.5 -0.078125 Z M 0.609375 -0.078125 "/></g></g></g><g fill="currentColor" fill-opacity="1"><g transform="translate(198.135522, 200.586121)"><g><path d="M 0.609375 -0.078125 C 0.753906 -0.078125 0.878906 -0.128906 0.984375 -0.234375 C 1.085938 -0.335938 1.144531 -0.460938 1.15625 -0.609375 L 1.15625 -5.328125 C 1.132812 -5.453125 1.070312 -5.5625 0.96875 -5.65625 C 0.875 -5.75 0.753906 -5.796875 0.609375 -5.796875 L 0.515625 -5.796875 L 0.5 -5.890625 L 2.96875 -5.890625 C 3.144531 -5.890625 3.332031 -5.90625 3.53125 -5.9375 C 3.738281 -5.96875 3.882812 -6 3.96875 -6.03125 L 3.96875 -4.96875 L 3.890625 -4.96875 L 3.890625 -5.125 C 3.890625 -5.257812 3.84375 -5.375 3.75 -5.46875 C 3.65625 -5.5625 3.539062 -5.613281 3.40625 -5.625 L 1.703125 -5.625 L 1.703125 -3.03125 L 3.125 -3.03125 C 3.226562 -3.03125 3.316406 -3.066406 3.390625 -3.140625 C 3.472656 -3.222656 3.515625 -3.328125 3.515625 -3.453125 L 3.515625 -3.5625 L 3.609375 -3.5625 L 3.609375 -2.234375 L 3.515625 -2.234375 L 3.515625 -2.359375 C 3.515625 -2.472656 3.476562 -2.566406 3.40625 -2.640625 C 3.332031 -2.722656 3.238281 -2.769531 3.125 -2.78125 L 1.703125 -2.78125 L 1.703125 -0.265625 L 2.90625 -0.265625 C 3.3125 -0.265625 3.625 -0.351562 3.84375 -0.53125 C 4.0625 -0.71875 4.242188 -0.992188 4.390625 -1.359375 L 4.484375 -1.359375 L 4 0 L 0.5 0 L 0.5 -0.078125 Z M 0.609375 -0.078125 "/></g></g></g><g fill="currentColor" fill-opacity="1"><g transform="translate(202.986228, 200.586121)"><g/></g></g><g fill="currentColor" fill-opacity="1"><g transform="translate(205.087919, 200.586121)"><g><path d="M 3.96875 -5.796875 L 3.96875 -5.078125 L 3.890625 -5.078125 L 3.890625 -5.21875 C 3.890625 -5.320312 3.847656 -5.414062 3.765625 -5.5 C 3.679688 -5.582031 3.582031 -5.625 3.46875 -5.625 L 1.703125 -5.625 L 1.703125 -3.03125 L 3.125 -3.03125 C 3.226562 -3.03125 3.316406 -3.066406 3.390625 -3.140625 C 3.472656 -3.222656 3.515625 -3.320312 3.515625 -3.4375 L 3.515625 -3.5625 L 3.609375 -3.5625 L 3.609375 -2.234375 L 3.515625 -2.234375 L 3.515625 -2.359375 C 3.515625 -2.472656 3.476562 -2.566406 3.40625 -2.640625 C 3.332031 -2.722656 3.238281 -2.769531 3.125 -2.78125 L 1.703125 -2.78125 L 1.703125 -0.609375 C 1.703125 -0.460938 1.753906 -0.335938 1.859375 -0.234375 C 1.960938 -0.128906 2.085938 -0.078125 2.234375 -0.078125 L 2.34375 -0.078125 L 2.34375 0 L 0.5 0 L 0.5 -0.078125 L 0.609375 -0.078125 C 0.753906 -0.078125 0.878906 -0.128906 0.984375 -0.234375 C 1.085938 -0.335938 1.144531 -0.460938 1.15625 -0.609375 L 1.15625 -5.328125 C 1.15625 -5.453125 1.097656 -5.5625 0.984375 -5.65625 C 0.878906 -5.75 0.753906 -5.796875 0.609375 -5.796875 L 0.515625 -5.796875 L 0.5 -5.890625 L 2.96875 -5.890625 C 3.144531 -5.890625 3.332031 -5.90625 3.53125 -5.9375 C 3.738281 -5.96875 3.882812 -6 3.96875 -6.03125 Z M 3.96875 -5.796875 "/></g></g></g><g fill="currentColor" fill-opacity="1"><g transform="translate(209.635989, 200.586121)"><g><path d="M 0.609375 -0.078125 C 0.753906 -0.078125 0.878906 -0.128906 0.984375 -0.234375 C 1.085938 -0.335938 1.144531 -0.460938 1.15625 -0.609375 L 1.15625 -5.28125 C 1.144531 -5.425781 1.085938 -5.546875 0.984375 -5.640625 C 0.878906 -5.742188 0.753906 -5.796875 0.609375 -5.796875 L 0.5 -5.796875 L 0.5 -5.890625 L 2.34375 -5.890625 L 2.34375 -5.796875 L 2.234375 -5.796875 C 2.085938 -5.796875 1.960938 -5.742188 1.859375 -5.640625 C 1.753906 -5.546875 1.703125 -5.425781 1.703125 -5.28125 L 1.703125 -0.609375 C 1.703125 -0.460938 1.753906 -0.335938 1.859375 -0.234375 C 1.960938 -0.128906 2.085938 -0.078125 2.234375 -0.078125 L 2.34375 -0.078125 L 2.34375 0 L 0.5 0 L 0.5 -0.078125 Z M 0.609375 -0.078125 "/></g></g></g><g fill="currentColor" fill-opacity="1"><g transform="translate(212.477481, 200.586121)"><g><path d="M 6.546875 -5.796875 C 6.398438 -5.796875 6.273438 -5.742188 6.171875 -5.640625 C 6.078125 -5.546875 6.023438 -5.429688 6.015625 -5.296875 L 6.015625 -0.953125 C 6.015625 -0.628906 6.035156 -0.320312 6.078125 -0.03125 L 6.09375 0.125 L 6.015625 0.125 L 1.4375 -4.78125 L 1.4375 -0.59375 C 1.445312 -0.394531 1.535156 -0.25 1.703125 -0.15625 C 1.773438 -0.101562 1.859375 -0.078125 1.953125 -0.078125 L 2.109375 -0.078125 L 2.109375 0 L 0.375 0 L 0.375 -0.078125 L 0.53125 -0.078125 C 0.675781 -0.078125 0.796875 -0.125 0.890625 -0.21875 C 0.992188 -0.320312 1.046875 -0.445312 1.046875 -0.59375 L 1.046875 -4.953125 C 1.046875 -5.296875 1.023438 -5.601562 0.984375 -5.875 L 0.96875 -6.015625 L 1.0625 -6.015625 L 5.640625 -1.125 L 5.640625 -5.28125 C 5.628906 -5.425781 5.570312 -5.546875 5.46875 -5.640625 C 5.375 -5.742188 5.257812 -5.796875 5.125 -5.796875 L 4.953125 -5.796875 L 4.953125 -5.890625 L 6.6875 -5.890625 L 6.6875 -5.796875 Z M 6.546875 -5.796875 "/></g></g></g><g fill="currentColor" fill-opacity="1"><g transform="translate(219.547582, 200.586121)"><g><path d="M 6.03125 -0.078125 L 6.09375 -0.078125 L 6.09375 0 L 4.203125 0 L 4.203125 -0.078125 L 4.28125 -0.078125 C 4.394531 -0.078125 4.476562 -0.113281 4.53125 -0.1875 C 4.59375 -0.269531 4.625 -0.34375 4.625 -0.40625 C 4.625 -0.476562 4.613281 -0.546875 4.59375 -0.609375 L 4.0625 -2.046875 L 1.796875 -2.046875 L 1.21875 -0.609375 C 1.195312 -0.535156 1.1875 -0.46875 1.1875 -0.40625 C 1.1875 -0.34375 1.21875 -0.269531 1.28125 -0.1875 C 1.34375 -0.113281 1.429688 -0.078125 1.546875 -0.078125 L 1.625 -0.078125 L 1.625 0 L -0.0625 0 L -0.0625 -0.078125 L 0 -0.078125 C 0.144531 -0.078125 0.285156 -0.125 0.421875 -0.21875 C 0.554688 -0.3125 0.664062 -0.441406 0.75 -0.609375 L 2.640625 -5.140625 C 2.847656 -5.585938 2.953125 -5.875 2.953125 -6 L 3.03125 -6 L 5.28125 -0.609375 C 5.363281 -0.441406 5.472656 -0.3125 5.609375 -0.21875 C 5.742188 -0.125 5.882812 -0.078125 6.03125 -0.078125 Z M 1.890625 -2.296875 L 3.953125 -2.296875 L 2.953125 -5 Z M 1.890625 -2.296875 "/></g></g></g><g fill="currentColor" fill-opacity="1"><g transform="translate(225.533213, 200.586121)"><g><path d="M 3.5 0.125 C 2.613281 0.113281 1.890625 -0.171875 1.328125 -0.734375 C 0.773438 -1.296875 0.5 -2.035156 0.5 -2.953125 C 0.5 -3.867188 0.773438 -4.601562 1.328125 -5.15625 C 1.890625 -5.71875 2.632812 -6 3.5625 -6 C 4.3125 -6 4.972656 -5.8125 5.546875 -5.4375 L 5.71875 -4.25 L 5.640625 -4.25 C 5.515625 -4.726562 5.265625 -5.097656 4.890625 -5.359375 C 4.515625 -5.617188 4.070312 -5.75 3.5625 -5.75 C 2.820312 -5.75 2.234375 -5.492188 1.796875 -4.984375 C 1.359375 -4.472656 1.140625 -3.796875 1.140625 -2.953125 C 1.140625 -2.117188 1.351562 -1.441406 1.78125 -0.921875 C 2.21875 -0.410156 2.789062 -0.148438 3.5 -0.140625 C 4.132812 -0.140625 4.660156 -0.304688 5.078125 -0.640625 C 5.535156 -1.015625 5.8125 -1.617188 5.90625 -2.453125 L 5.96875 -2.453125 L 5.875 -1.140625 C 5.363281 -0.296875 4.570312 0.125 3.5 0.125 Z M 3.5 0.125 "/></g></g></g><g fill="currentColor" fill-opacity="1"><g transform="translate(231.92237, 200.586121)"><g><path d="M 0.609375 -0.078125 C 0.753906 -0.078125 0.878906 -0.128906 0.984375 -0.234375 C 1.085938 -0.335938 1.144531 -0.460938 1.15625 -0.609375 L 1.15625 -5.328125 C 1.132812 -5.453125 1.070312 -5.5625 0.96875 -5.65625 C 0.875 -5.75 0.753906 -5.796875 0.609375 -5.796875 L 0.515625 -5.796875 L 0.5 -5.890625 L 2.96875 -5.890625 C 3.144531 -5.890625 3.332031 -5.90625 3.53125 -5.9375 C 3.738281 -5.96875 3.882812 -6 3.96875 -6.03125 L 3.96875 -4.96875 L 3.890625 -4.96875 L 3.890625 -5.125 C 3.890625 -5.257812 3.84375 -5.375 3.75 -5.46875 C 3.65625 -5.5625 3.539062 -5.613281 3.40625 -5.625 L 1.703125 -5.625 L 1.703125 -3.03125 L 3.125 -3.03125 C 3.226562 -3.03125 3.316406 -3.066406 3.390625 -3.140625 C 3.472656 -3.222656 3.515625 -3.328125 3.515625 -3.453125 L 3.515625 -3.5625 L 3.609375 -3.5625 L 3.609375 -2.234375 L 3.515625 -2.234375 L 3.515625 -2.359375 C 3.515625 -2.472656 3.476562 -2.566406 3.40625 -2.640625 C 3.332031 -2.722656 3.238281 -2.769531 3.125 -2.78125 L 1.703125 -2.78125 L 1.703125 -0.265625 L 2.90625 -0.265625 C 3.3125 -0.265625 3.625 -0.351562 3.84375 -0.53125 C 4.0625 -0.71875 4.242188 -0.992188 4.390625 -1.359375 L 4.484375 -1.359375 L 4 0 L 0.5 0 L 0.5 -0.078125 Z M 0.609375 -0.078125 "/></g></g></g><g fill="currentColor" fill-opacity="1"><g transform="translate(236.773076, 200.586121)"><g><path d="M 0.609375 -0.078125 C 0.753906 -0.078125 0.878906 -0.128906 0.984375 -0.234375 C 1.085938 -0.335938 1.144531 -0.460938 1.15625 -0.609375 L 1.15625 -5.28125 C 1.144531 -5.425781 1.085938 -5.546875 0.984375 -5.640625 C 0.878906 -5.742188 0.753906 -5.796875 0.609375 -5.796875 L 0.5 -5.796875 L 0.5 -5.890625 L 2.34375 -5.890625 L 2.34375 -5.796875 L 2.234375 -5.796875 C 2.085938 -5.796875 1.960938 -5.742188 1.859375 -5.640625 C 1.753906 -5.546875 1.703125 -5.425781 1.703125 -5.28125 L 1.703125 -0.609375 C 1.703125 -0.460938 1.753906 -0.335938 1.859375 -0.234375 C 1.960938 -0.128906 2.085938 -0.078125 2.234375 -0.078125 L 2.34375 -0.078125 L 2.34375 0 L 0.5 0 L 0.5 -0.078125 Z M 0.609375 -0.078125 "/></g></g></g><g fill="currentColor" fill-opacity="1"><g transform="translate(239.614568, 200.586121)"><g><path d="M 2.234375 -5.625 L 1.703125 -5.625 L 1.703125 -0.609375 C 1.703125 -0.460938 1.753906 -0.335938 1.859375 -0.234375 C 1.960938 -0.128906 2.085938 -0.078125 2.234375 -0.078125 L 2.34375 -0.078125 L 2.34375 0 L 0.5 0 L 0.5 -0.078125 L 0.609375 -0.078125 C 0.753906 -0.078125 0.878906 -0.128906 0.984375 -0.234375 C 1.085938 -0.335938 1.144531 -0.460938 1.15625 -0.609375 L 1.15625 -5.265625 C 1.144531 -5.410156 1.085938 -5.535156 0.984375 -5.640625 C 0.878906 -5.742188 0.753906 -5.796875 0.609375 -5.796875 L 0.5 -5.796875 L 0.5 -5.890625 L 2.78125 -5.890625 C 3.28125 -5.890625 3.675781 -5.742188 3.96875 -5.453125 C 4.257812 -5.171875 4.40625 -4.804688 4.40625 -4.359375 C 4.40625 -3.910156 4.265625 -3.519531 3.984375 -3.1875 C 3.710938 -2.863281 3.378906 -2.703125 2.984375 -2.703125 C 3.066406 -2.660156 3.164062 -2.582031 3.28125 -2.46875 C 3.394531 -2.351562 3.5 -2.234375 3.59375 -2.109375 C 4.070312 -1.421875 4.382812 -0.992188 4.53125 -0.828125 C 4.675781 -0.671875 4.78125 -0.5625 4.84375 -0.5 C 4.90625 -0.445312 4.972656 -0.390625 5.046875 -0.328125 C 5.117188 -0.273438 5.191406 -0.234375 5.265625 -0.203125 C 5.421875 -0.117188 5.59375 -0.078125 5.78125 -0.078125 L 5.78125 0 L 5.328125 0 C 5.078125 0 4.847656 -0.0390625 4.640625 -0.125 C 4.441406 -0.21875 4.289062 -0.304688 4.1875 -0.390625 C 4.082031 -0.484375 3.988281 -0.570312 3.90625 -0.65625 C 3.832031 -0.75 3.625 -1.039062 3.28125 -1.53125 C 2.945312 -2.03125 2.75 -2.3125 2.6875 -2.375 C 2.632812 -2.445312 2.578125 -2.519531 2.515625 -2.59375 C 2.335938 -2.78125 2.15625 -2.875 1.96875 -2.875 L 1.96875 -2.953125 C 2.019531 -2.953125 2.082031 -2.953125 2.15625 -2.953125 C 2.226562 -2.953125 2.316406 -2.953125 2.421875 -2.953125 C 3.117188 -2.972656 3.554688 -3.265625 3.734375 -3.828125 C 3.765625 -3.941406 3.78125 -4.046875 3.78125 -4.140625 C 3.78125 -4.242188 3.78125 -4.3125 3.78125 -4.34375 C 3.769531 -4.71875 3.671875 -5.019531 3.484375 -5.25 C 3.304688 -5.476562 3.054688 -5.597656 2.734375 -5.609375 C 2.597656 -5.617188 2.429688 -5.625 2.234375 -5.625 Z M 2.234375 -5.625 "/></g></g></g><g fill="currentColor" fill-opacity="1"><g transform="translate(245.305955, 200.586121)"><g><path d="M 1.421875 -5.15625 C 1.984375 -5.71875 2.710938 -6 3.609375 -6 C 4.503906 -6 5.226562 -5.71875 5.78125 -5.15625 C 6.34375 -4.59375 6.625 -3.851562 6.625 -2.9375 C 6.625 -2.03125 6.34375 -1.289062 5.78125 -0.71875 C 5.226562 -0.15625 4.503906 0.125 3.609375 0.125 C 2.710938 0.125 1.984375 -0.15625 1.421875 -0.71875 C 0.867188 -1.289062 0.59375 -2.03125 0.59375 -2.9375 C 0.59375 -3.851562 0.867188 -4.59375 1.421875 -5.15625 Z M 1.875 -0.90625 C 2.3125 -0.394531 2.890625 -0.140625 3.609375 -0.140625 C 4.328125 -0.140625 4.898438 -0.394531 5.328125 -0.90625 C 5.765625 -1.425781 5.984375 -2.101562 5.984375 -2.9375 C 5.984375 -3.5 5.882812 -3.988281 5.6875 -4.40625 C 5.488281 -4.832031 5.207031 -5.160156 4.84375 -5.390625 C 4.488281 -5.628906 4.078125 -5.75 3.609375 -5.75 C 2.890625 -5.75 2.3125 -5.488281 1.875 -4.96875 C 1.445312 -4.457031 1.234375 -3.78125 1.234375 -2.9375 C 1.234375 -2.101562 1.445312 -1.425781 1.875 -0.90625 Z M 1.875 -0.90625 "/></g></g></g></svg>